SplineFontDB: 3.2
FontName: Quintessence-Regular
FullName: Quintessence
FamilyName: Quintessence
Weight: Regular
Copyright: Copyright 2023 Brad Neil
UComments: "2023-2-8: Created with FontForge (http://fontforge.org)"
Version: 0.1000
ItalicAngle: 0
UnderlinePosition: -130
UnderlineWidth: 82
Ascent: 800
Descent: 200
InvalidEm: 0
LayerCount: 2
Layer: 0 0 "Back" 1
Layer: 1 0 "Fore" 0
XUID: [1021 709 80515229 13340]
StyleMap: 0x0000
FSType: 0
OS2Version: 0
OS2_WeightWidthSlopeOnly: 0
OS2_UseTypoMetrics: 1
CreationTime: 1675857821
ModificationTime: 1700143233
PfmFamily: 65
TTFWeight: 400
TTFWidth: 5
LineGap: 0
VLineGap: 90
OS2TypoAscent: 1000
OS2TypoAOffset: 0
OS2TypoDescent: -500
OS2TypoDOffset: 0
OS2TypoLinegap: 0
OS2WinAscent: 0
OS2WinAOffset: 1
OS2WinDescent: 0
OS2WinDOffset: 1
HheadAscent: 1000
HheadAOffset: 0
HheadDescent: -500
HheadDOffset: 0
OS2CapHeight: 863
OS2XHeight: 500
OS2FamilyClass: 2568
OS2Vendor: 'PfEd'
MarkAttachClasses: 1
DEI: 91125
LangName: 1033 "" "" "" "" "" "" "" "" "" "Brad Neil" "" "" "http://friedorange.xyz/" "This Font Software is licensed under the SIL Open Font License, Version 1.1. This license is available with a FAQ at: https://scripts.sil.org/OFL" "This Font Software is licensed under the SIL Open Font License, Version 1.1. This license is available with a FAQ at: https://scripts.sil.org/OFL"
Encoding: UnicodeFull
UnicodeInterp: none
NameList: AGL For New Fonts
DisplaySize: -48
AntiAlias: 1
FitToEm: 1
WinInfo: 0 16 13
BeginPrivate: 0
EndPrivate
BeginChars: 1114123 128

StartChar: .notdef
Encoding: 1114112 -1 0
Width: 755
VWidth: 0
Flags: HMW
LayerCount: 2
Fore
SplineSet
117 862 m 2
 638 862 l 2
 658 862 675 845 675 825 c 2
 675 37 l 2
 675 17 658 0 638 0 c 2
 117 0 l 2
 97 0 80 17 80 37 c 2
 80 825 l 2
 80 845 97 862 117 862 c 2
186 788 m 1
 378 498 l 1
 569 788 l 1
 186 788 l 1
154 702 m 1
 154 160 l 1
 333 431 l 1
 154 702 l 1
601 702 m 1
 422 431 l 1
 601 160 l 1
 601 702 l 1
378 364 m 1
 186 74 l 1
 569 74 l 1
 378 364 l 1
EndSplineSet
EndChar

StartChar: age
Encoding: 58995 58995 1
Width: 508
Flags: HMW
LayerCount: 2
Fore
SplineSet
20 475 m 0
 20 495 35 512 57 512 c 0
 74 512 89 501 93 485 c 0
 105 440 127 408 154 385 c 1
 159 420 169 446 183 467 c 0
 207 501 245 512 271 512 c 0
 338 512 393 458 393 388 c 0
 393 318 338 264 271 264 c 0
 256 264 241 266 225 269 c 1
 240 144 338 79 456 62 c 0
 474 59 488 44 488 25 c 0
 488 4 471 -12 451 -12 c 0
 449 -12 448 -12 446 -12 c 0
 372 -2 298 27 242 79 c 0
 187 130 151 205 149 299 c 1
 91 332 43 384 21 465 c 0
 20 468 20 472 20 475 c 0
319 388 m 0
 319 419 298 438 271 438 c 0
 270 438 270 438 269 438 c 0
 257 438 253 438 244 425 c 0
 237 414 227 390 224 346 c 1
 242 340 258 338 271 338 c 0
 297 338 319 357 319 388 c 0
EndSplineSet
EndChar

StartChar: age_roar
Encoding: 1114113 -1 2
Width: 0
VWidth: 0
Flags: M
LayerCount: 2
Fore
SplineSet
588 475 m 0
 588 509 620 514 655 514 c 0
 800 514 899 405 899 250 c 0
 899 83 788 -14 626 -14 c 0
 611 -14 595 -14 580 -12 c 0
 487 -2 402 25 340 78 c 0
 279 129 242 205 240 299 c 1
 182 332 134 384 112 465 c 0
 111 468 111 472 111 475 c 0
 111 495 126 512 148 512 c 0
 165 512 180 501 184 485 c 0
 196 440 218 408 245 385 c 1
 250 420 261 446 275 467 c 0
 299 501 336 512 362 512 c 0
 429 512 484 458 484 388 c 0
 484 318 429 264 362 264 c 0
 347 264 332 266 316 269 c 1
 323 209 349 167 388 134 c 0
 435 95 504 71 588 62 c 0
 601 61 613 60 625 60 c 0
 677 60 722 71 756 95 c 0
 798 124 826 170 826 250 c 0
 826 330 797 377 760 406 c 0
 729 430 690 440 654 440 c 0
 644 440 635 438 625 438 c 0
 605 438 588 454 588 475 c 0
411 388 m 0
 411 419 389 438 362 438 c 0
 361 438 362 438 361 438 c 0
 349 438 344 438 335 425 c 0
 328 414 318 390 315 346 c 1
 333 340 349 338 362 338 c 0
 388 338 411 357 411 388 c 0
EndSplineSet
Validated: 1
EndChar

StartChar: ah
Encoding: 58998 58998 3
Width: 490
Flags: HMW
LayerCount: 2
Fore
SplineSet
433 512 m 0
 453 512 470 495 470 475 c 0
 470 455 453 438 433 438 c 0
 400 438 368 425 341 395 c 0
 314 365 291 316 282 245 c 0
 271 163 243 99 203 55 c 0
 163 11 111 -12 57 -12 c 0
 37 -12 20 5 20 25 c 0
 20 45 37 62 57 62 c 0
 90 62 122 75 149 105 c 0
 176 135 199 184 208 255 c 0
 219 337 247 401 287 445 c 0
 327 489 379 512 433 512 c 0
EndSplineSet
EndChar

StartChar: ah_roar
Encoding: 1114114 -1 4
Width: 0
VWidth: 0
Flags: M
LayerCount: 2
Fore
SplineSet
620 62 m 0
 630 62 639 60 649 60 c 0
 685 60 724 70 755 94 c 0
 792 123 820 170 820 250 c 0
 820 330 793 374 751 402 c 0
 714 427 661 439 603 439 c 0
 533 439 483 423 448 390 c 0
 417 361 394 316 385 245 c 0
 374 163 347 99 307 55 c 0
 267 11 214 -12 160 -12 c 0
 140 -12 123 5 123 25 c 0
 123 45 140 62 160 62 c 0
 193 62 225 75 252 105 c 0
 279 135 303 184 312 255 c 0
 323 337 350 401 397 444 c 0
 450 493 518 513 605 513 c 0
 673 513 739 499 793 463 c 0
 854 422 894 348 894 250 c 0
 894 95 795 -14 650 -14 c 0
 615 -14 583 -9 583 25 c 0
 583 46 600 62 620 62 c 0
EndSplineSet
Validated: 1
EndChar

StartChar: axe
Encoding: 58987 58987 5
Width: 530
Flags: HMW
LayerCount: 2
Fore
SplineSet
20 837 m 0
 20 856 35 874 57 874 c 0
 71 874 84 866 90 854 c 2
 344 358 l 1
 429 495 l 2
 436 505 447 512 460 512 c 0
 482 512 497 495 497 475 c 0
 497 468 496 461 492 455 c 2
 383 281 l 1
 505 42 l 2
 508 37 510 31 510 25 c 0
 510 6 495 -12 473 -12 c 0
 459 -12 446 -4 440 8 c 2
 337 208 l 1
 211 5 l 2
 204 -5 193 -12 180 -12 c 0
 159 -12 143 5 143 25 c 0
 143 32 144 39 148 45 c 2
 298 285 l 1
 24 820 l 2
 21 825 20 831 20 837 c 0
EndSplineSet
EndChar

StartChar: bob
Encoding: 58961 58961 6
Width: 395
Flags: HMW
LayerCount: 2
Fore
SplineSet
339 -12 m 0
 331 -12 323 -12 316 -12 c 1
 316 -337 l 2
 316 -357 299 -374 279 -374 c 0
 184 -374 117 -342 78 -293 c 0
 39 -244 30 -185 30 -134 c 0
 30 -81 47 -24 98 13 c 0
 133 38 179 54 242 60 c 1
 242 475 l 2
 242 495 259 512 279 512 c 0
 299 512 316 495 316 475 c 2
 316 62 l 1
 324 62 332 62 340 62 c 0
 360 61 375 45 375 25 c 0
 375 4 359 -12 339 -12 c 0
242 -15 m 1
 154 -25 104 -51 104 -134 c 0
 104 -229 145 -287 242 -298 c 1
 242 -15 l 1
EndSplineSet
EndChar

StartChar: church
Encoding: 58974 58974 7
Width: 521
Flags: HMW
LayerCount: 2
Fore
SplineSet
464 874 m 0
 485 874 501 857 501 837 c 0
 501 828 498 820 493 814 c 0
 305 587 235 409 235 286 c 0
 235 142 275 92 315 71 c 0
 336 60 361 57 385 57 c 0
 409 57 430 62 450 62 c 0
 470 62 487 46 487 25 c 0
 487 6 472 -10 454 -12 c 0
 438 -14 414 -18 385 -18 c 0
 353 -18 315 -13 280 6 c 0
 212 42 161 127 161 286 c 0
 161 354 178 430 214 514 c 1
 168 478 120 452 65 439 c 0
 62 438 60 438 57 438 c 0
 37 438 20 453 20 475 c 0
 20 492 32 507 48 511 c 0
 109 526 160 559 220 617 c 0
 280 675 347 757 437 861 c 0
 444 869 453 874 464 874 c 0
EndSplineSet
EndChar

StartChar: deed
Encoding: 58963 58963 8
Width: 419
Flags: HMW
LayerCount: 2
Fore
SplineSet
352 62 m 0
 371 62 389 47 389 25 c 0
 389 10 380 -2 368 -8 c 0
 260 -60 169 -194 154 -341 c 0
 152 -360 136 -374 117 -374 c 0
 97 -374 80 -357 80 -337 c 2
 80 475 l 2
 80 495 97 512 117 512 c 0
 137 512 154 495 154 475 c 2
 154 -113 l 1
 199 -38 262 23 336 58 c 0
 341 60 346 62 352 62 c 0
EndSplineSet
EndChar

StartChar: deed_ado_roar
Encoding: 1114115 -1 9
Width: 0
VWidth: 0
Flags: M
LayerCount: 2
Fore
SplineSet
840 62 m 0
 850 62 859 60 869 60 c 0
 905 60 944 70 975 94 c 0
 1012 123 1040 170 1040 250 c 0
 1040 330 1013 374 971 403 c 0
 936 427 887 439 833 439 c 0
 823 439 813 439 802 438 c 0
 657 422 534 296 431 134 c 0
 328 -28 246 -221 171 -355 c 0
 165 -366 152 -374 138 -374 c 0
 118 -374 101 -357 101 -337 c 2
 101 475 l 2
 101 495 118 512 138 512 c 0
 158 512 175 495 175 475 c 2
 175 -186 l 1
 231 -74 294 56 369 174 c 0
 477 344 612 493 794 512 c 0
 807 513 820 513 834 513 c 0
 999 513 1114 420 1114 250 c 0
 1114 95 1015 -14 870 -14 c 0
 835 -14 803 -9 803 25 c 0
 803 46 820 62 840 62 c 0
EndSplineSet
Validated: 1
EndChar

StartChar: eat
Encoding: 58993 58993 10
Width: 400
Flags: HMW
LayerCount: 2
Fore
SplineSet
283 512 m 0
 304 512 320 495 320 475 c 2
 320 25 l 2
 320 5 303 -12 283 -12 c 0
 263 -12 247 5 247 25 c 2
 247 319 l 1
 90 8 l 2
 84 -4 71 -12 57 -12 c 0
 35 -12 20 6 20 25 c 0
 20 31 22 37 24 42 c 2
 250 492 l 2
 256 503 267 512 283 512 c 0
EndSplineSet
EndChar

StartChar: ed
Encoding: 58994 58994 11
Width: 444
Flags: HMW
LayerCount: 2
Fore
SplineSet
424 25 m 0
 424 4 407 -12 387 -12 c 0
 385 -12 384 -12 382 -12 c 0
 304 -1 218 30 154 105 c 0
 90 180 50 297 50 475 c 0
 50 495 67 512 87 512 c 0
 107 512 124 495 124 475 c 0
 124 308 160 211 210 153 c 0
 260 95 324 72 392 62 c 0
 410 59 424 44 424 25 c 0
EndSplineSet
EndChar

StartChar: ed_roar
Encoding: 1114116 -1 12
Width: 0
VWidth: 0
Flags: M
LayerCount: 2
Fore
SplineSet
565 475 m 0
 565 509 596 514 631 514 c 0
 776 514 876 405 876 250 c 0
 876 80 761 -13 596 -13 c 0
 583 -13 570 -13 557 -12 c 0
 484 -6 391 24 314 99 c 0
 237 174 181 295 181 475 c 0
 181 495 198 512 218 512 c 0
 238 512 255 495 255 475 c 0
 255 310 304 212 366 151 c 0
 428 90 505 67 563 62 c 0
 574 61 585 60 595 60 c 0
 649 60 698 73 733 97 c 0
 775 126 802 170 802 250 c 0
 802 330 773 377 736 406 c 0
 705 430 667 440 631 440 c 0
 621 440 611 438 601 438 c 0
 581 438 565 454 565 475 c 0
EndSplineSet
Validated: 1
EndChar

StartChar: eight
Encoding: 56 56 13
Width: 640
Flags: HMW
LayerCount: 2
Fore
SplineSet
253 457 m 1
 180 505 89 574 89 683 c 0
 89 752 122 805 167 835 c 0
 212 865 267 874 321 874 c 0
 404 874 470 850 511 823 c 0
 521 816 527 806 527 793 c 0
 527 772 510 756 490 756 c 0
 482 756 476 758 470 762 c 0
 445 779 389 800 321 800 c 0
 277 800 234 791 207 773 c 0
 180 755 163 732 163 683 c 0
 163 643 181 611 216 578 c 0
 244 552 282 526 323 500 c 1
 365 526 403 551 432 577 c 0
 468 609 485 637 485 673 c 0
 485 693 502 710 522 710 c 0
 543 710 559 694 559 672 c 0
 559 567 463 502 391 456 c 1
 473 402 576 327 576 201 c 0
 576 141 554 84 509 46 c 0
 464 8 399 -12 320 -12 c 0
 174 -12 64 64 64 201 c 0
 64 328 170 404 253 457 c 1
322 413 m 1
 273 383 226 352 193 319 c 0
 158 283 138 247 138 201 c 0
 138 159 152 127 180 103 c 0
 208 79 253 62 320 62 c 0
 387 62 433 79 461 103 c 0
 489 127 502 158 502 201 c 0
 502 248 482 284 448 319 c 0
 416 352 370 382 322 413 c 1
EndSplineSet
EndChar

StartChar: emdash
Encoding: 8212 8212 14
Width: 1000
Flags: HMW
LayerCount: 2
Fore
SplineSet
40 306 m 2
 960 306 l 2
 980 306 997 289 997 269 c 0
 997 249 980 232 960 232 c 2
 40 232 l 2
 20 232 3 249 3 269 c 0
 3 289 20 306 40 306 c 2
EndSplineSet
EndChar

StartChar: exam
Encoding: 58988 58988 15
Width: 542
Flags: HMW
LayerCount: 2
Fore
SplineSet
33 475 m 0
 33 494 48 512 70 512 c 0
 84 512 96 504 102 492 c 2
 194 314 l 1
 307 495 l 2
 314 505 325 512 338 512 c 0
 360 512 375 495 375 475 c 0
 375 468 373 461 369 455 c 2
 233 237 l 1
 518 -320 l 2
 521 -325 522 -331 522 -337 c 0
 522 -356 507 -374 485 -374 c 0
 471 -374 458 -366 452 -354 c 2
 187 164 l 1
 88 5 l 2
 81 -5 70 -12 57 -12 c 0
 36 -12 20 5 20 25 c 0
 20 32 22 39 26 45 c 2
 148 241 l 1
 37 458 l 2
 34 463 33 469 33 475 c 0
EndSplineSet
EndChar

StartChar: fife
Encoding: 58968 58968 16
Width: 436
Flags: HMW
LayerCount: 2
Fore
SplineSet
92 837 m 0
 92 858 108 874 129 874 c 0
 138 874 145 871 151 866 c 0
 271 771 325 637 348 511 c 1
 358 512 368 512 379 512 c 0
 399 512 416 495 416 475 c 0
 416 455 399 438 379 438 c 0
 372 438 365 437 358 437 c 1
 363 387 365 340 365 299 c 0
 365 213 357 139 332 83 c 0
 308 29 262 -12 203 -12 c 0
 103 -12 55 95 55 195 c 0
 55 364 135 469 274 501 c 1
 253 614 206 729 106 808 c 0
 97 815 92 825 92 837 c 0
129 195 m 0
 129 136 150 62 203 62 c 0
 231 62 247 75 264 113 c 0
 281 153 291 219 291 298 c 0
 291 337 290 381 285 427 c 1
 248 418 217 403 194 382 c 0
 153 345 129 287 129 195 c 0
EndSplineSet
EndChar

StartChar: five
Encoding: 53 53 17
Width: 640
Flags: HMW
LayerCount: 2
Fore
SplineSet
67 105 m 4
 67 125 83 142 104 142 c 4
 115 142 125 137 132 129 c 4
 165 90 205 62 295 62 c 4
 358 62 410 79 446 113 c 4
 482 147 505 197 505 273 c 4
 505 350 484 400 451 432 c 4
 418 464 371 481 312 481 c 4
 216 481 194 469 138 437 c 4
 133 434 126 432 119 432 c 4
 99 432 82 449 82 469 c 4
 82 471 83 472 83 473 c 6
 125 830 l 6
 127 848 143 863 162 863 c 6
 508 863 l 6
 528 863 545 846 545 826 c 4
 545 806 528 789 508 789 c 6
 195 789 l 5
 164 532 l 5
 202 547 246 555 312 555 c 4
 386 555 454 532 503 484 c 4
 552 436 579 364 579 273 c 4
 579 181 548 108 496 59 c 4
 444 10 372 -12 295 -12 c 4
 225 -12 174 4 139 25 c 4
 104 46 83 71 75 81 c 4
 70 87 67 96 67 105 c 4
EndSplineSet
EndChar

StartChar: four
Encoding: 52 52 18
Width: 640
Flags: HMW
LayerCount: 2
Fore
SplineSet
323 874 m 4
 345 874 360 856 360 837 c 4
 360 832 359 827 357 823 c 6
 156 325 l 5
 395 325 l 5
 395 732 l 6
 395 752 412 769 432 769 c 4
 452 769 468 752 468 732 c 6
 468 325 l 5
 563 325 l 6
 583 325 600 308 600 288 c 4
 600 268 583 251 563 251 c 6
 468 251 l 5
 468 25 l 6
 468 5 452 -12 432 -12 c 4
 412 -12 395 5 395 25 c 6
 395 251 l 5
 101 251 l 6
 81 251 64 268 64 288 c 4
 64 293 65 298 67 302 c 6
 288 851 l 6
 293 865 307 874 323 874 c 4
EndSplineSet
EndChar

StartChar: gig
Encoding: 58965 58965 19
Width: 433
Flags: HMW
LayerCount: 2
Fore
SplineSet
379 -177 m 0
 379 -293 316 -374 215 -374 c 0
 178 -374 141 -357 110 -326 c 0
 79 -295 57 -248 57 -190 c 0
 57 -145 67 -84 108 -31 c 0
 126 -8 150 14 181 30 c 1
 119 88 50 164 50 297 c 0
 50 396 96 465 159 495 c 0
 187 508 217 514 248 514 c 0
 286 514 325 505 361 489 c 0
 374 483 383 470 383 455 c 0
 383 433 365 419 346 419 c 0
 341 419 336 420 331 422 c 0
 304 434 275 440 248 440 c 0
 227 440 207 436 190 428 c 0
 152 410 124 376 124 297 c 0
 124 169 192 121 261 56 c 1
 282 60 305 62 330 62 c 0
 350 62 367 45 367 25 c 0
 367 5 350 -12 330 -12 c 0
 328 -12 326 -12 324 -12 c 1
 356 -55 379 -107 379 -177 c 0
239 -25 m 1
 204 -37 182 -55 166 -76 c 0
 139 -111 131 -157 131 -190 c 0
 131 -230 145 -256 163 -274 c 0
 181 -292 204 -300 215 -300 c 0
 234 -300 256 -294 273 -278 c 0
 290 -262 305 -234 305 -177 c 0
 305 -106 278 -65 239 -25 c 1
EndSplineSet
EndChar

StartChar: haha
Encoding: 58978 58978 20
Width: 439
Flags: HMW
LayerCount: 2
Fore
SplineSet
382 874 m 0
 402 874 419 857 419 837 c 0
 419 817 402 800 382 800 c 0
 331 800 275 783 231 742 c 0
 187 701 154 637 154 534 c 2
 154 25 l 2
 154 5 137 -12 117 -12 c 0
 97 -12 80 5 80 25 c 2
 80 534 l 2
 80 653 121 741 180 796 c 0
 239 851 314 874 382 874 c 0
EndSplineSet
EndChar

StartChar: if
Encoding: 58992 58992 21
Width: 234
Flags: HMW
LayerCount: 2
Fore
SplineSet
117 512 m 0
 137 512 154 495 154 475 c 2
 154 25 l 2
 154 5 137 -12 117 -12 c 0
 97 -12 80 5 80 25 c 2
 80 475 l 2
 80 495 97 512 117 512 c 0
EndSplineSet
EndChar

StartChar: if_ado
Encoding: 1114117 -1 22
Width: 0
VWidth: 0
Flags: M
LayerCount: 2
Fore
SplineSet
682 512 m 0
 702 512 719 496 719 475 c 0
 719 456 705 441 687 438 c 0
 562 420 405 280 334 15 c 0
 330 -1 315 -12 298 -12 c 0
 278 -12 261 5 261 25 c 2
 261 475 l 2
 261 495 278 512 298 512 c 0
 318 512 335 495 335 475 c 2
 335 224 l 1
 423 393 551 494 677 512 c 0
 679 512 680 512 682 512 c 0
EndSplineSet
Validated: 1
EndChar

StartChar: if_ado_roar
Encoding: 1114118 -1 23
Width: 0
VWidth: 0
Flags: M
LayerCount: 2
Fore
SplineSet
594 62 m 0
 604 62 613 60 623 60 c 0
 659 60 698 70 729 94 c 0
 766 123 794 170 794 250 c 0
 794 330 767 376 725 405 c 0
 691 429 645 440 594 440 c 0
 582 440 569 439 556 438 c 0
 386 420 234 280 163 15 c 0
 159 -1 144 -12 127 -12 c 0
 107 -12 91 5 91 25 c 2
 91 475 l 2
 91 495 107 512 127 512 c 0
 147 512 164 495 164 475 c 2
 164 222 l 1
 255 393 394 496 549 512 c 0
 564 514 580 514 595 514 c 0
 757 514 868 417 868 250 c 0
 868 95 769 -14 624 -14 c 0
 589 -14 557 -9 557 25 c 0
 557 46 574 62 594 62 c 0
EndSplineSet
Validated: 1
EndChar

StartChar: inkling
Encoding: 58980 58980 24
Width: 451
Flags: HMW
LayerCount: 2
Fore
SplineSet
182 176 m 1
 119 284 73 429 73 568 c 0
 73 666 88 781 141 837 c 0
 162 859 193 874 226 874 c 0
 298 874 336 814 354 758 c 0
 373 699 378 629 378 568 c 0
 378 429 332 284 270 176 c 1
 314 113 364 71 403 61 c 0
 419 57 431 42 431 25 c 0
 431 3 414 -12 394 -12 c 0
 391 -12 388 -12 385 -11 c 0
 325 4 272 48 226 109 c 1
 180 48 127 4 66 -11 c 0
 63 -12 60 -12 57 -12 c 0
 37 -12 20 3 20 25 c 0
 20 42 32 57 48 61 c 0
 88 71 138 113 182 176 c 1
226 800 m 0
 212 800 204 796 194 786 c 0
 155 745 147 646 147 568 c 0
 147 460 179 344 226 250 c 1
 273 344 304 460 304 568 c 0
 304 646 296 745 257 786 c 0
 247 796 240 800 226 800 c 0
EndSplineSet
EndChar

StartChar: kick
Encoding: 58964 58964 25
Width: 414
Flags: HMW
LayerCount: 2
Fore
SplineSet
85 837 m 0
 85 859 103 874 122 874 c 0
 128 874 133.159179688 873.359375 138 871 c 0
 296 794 355 621 364 396 c 1
 364 396 364 396 364 395 c 0
 364 375 347 358 327 358 c 0
 314 358 302 365 296 376 c 0
 277 408 253 438 208 438 c 0
 169 438 155 420 141 390 c 0
 127 360 124 319 124 299 c 0
 124 263 137 198 168 148 c 0
 199 98 243 62 314 62 c 0
 334 62 351 45 351 25 c 0
 351 5 334 -12 314 -12 c 0
 150 -12 50 152 50 299 c 0
 50 326 53 374 74 420 c 0
 95 466 140 512 208 512 c 0
 237 512 261 504 282 493 c 1
 263 640 214 751 106 804 c 0
 94 810 85 822 85 837 c 0
EndSplineSet
EndChar

StartChar: loch
Encoding: 58985 58985 26
Width: 634
Flags: HMW
LayerCount: 2
Fore
SplineSet
456 -12 m 0
 436 -12 419 5 419 25 c 0
 419 35 423 44 430 51 c 0
 475 96 510 152 510 256 c 0
 510 353 448 424 353 436 c 1
 353 25 l 2
 353 5 336 -12 316 -12 c 0
 223 -12 153 25 110 79 c 0
 67 133 50 200 50 262 c 0
 50 327 73 390 119 437 c 0
 158 476 212 502 279 510 c 1
 279 837 l 2
 279 857 296 874 316 874 c 0
 336 874 353 857 353 837 c 2
 353 510 l 1
 424 503 480 474 519 431 c 0
 563 382 584 318 584 256 c 0
 584 134 537 54 482 -1 c 0
 475 -8 466 -12 456 -12 c 0
279 435 m 1
 186 422 124 359 124 262 c 0
 124 159 179 78 279 64 c 1
 279 435 l 1
EndSplineSet
EndChar

StartChar: loll
Encoding: 58983 58983 27
Width: 459
Flags: HMW
LayerCount: 2
Fore
SplineSet
392 512 m 0
 413 512 429 495 429 475 c 0
 429 474 429 472 429 471 c 0
 423 418 407 362 368 316 c 0
 347 291 319 269 285 252 c 1
 311 228 329 192 329 149 c 0
 329 36 221 -14 103 -14 c 0
 87 -14 71 -14 54 -12 c 0
 35 -10 20 6 20 25 c 0
 20 46 37 62 57 62 c 0
 72 62 86 60 100 60 c 0
 143 60 181 67 207 79 c 0
 241 95 256 113 256 149 c 0
 256 196 221 218 176 218 c 0
 156 218 140 235 140 255 c 0
 140 273 152 288 169 291 c 0
 241 305 284 332 311 364 c 0
 338 396 351 436 355 479 c 0
 357 498 373 512 392 512 c 0
EndSplineSet
EndChar

StartChar: mime
Encoding: 58981 58981 28
Width: 443
Flags: HMW
LayerCount: 2
Fore
SplineSet
337 512 m 0
 357 512 374 497 374 475 c 0
 374 459 364 445 350 440 c 0
 215 392 159 265 148 73 c 1
 160 74 172 74 183 74 c 0
 260 74 311 63 361 22 c 0
 397 -8 423 -55 423 -112 c 0
 423 -214 369 -315 276 -369 c 0
 271 -372 264 -374 257 -374 c 0
 247 -374 238 -370 231 -363 c 0
 167 -299 76 -179 72 -8 c 1
 64 -9 56 -12 47 -12 c 0
 27 -12 10 3 10 25 c 0
 10 57 43 63 73 66 c 1
 84 295 161 451 325 510 c 0
 329 511 333 512 337 512 c 0
183 0 m 0
 170 0 159 0 146 -1 c 1
 148 -132 210 -229 263 -289 c 1
 317 -247 349 -178 349 -112 c 0
 349 -24 271 0 183 0 c 0
EndSplineSet
EndChar

StartChar: mime_roar
Encoding: 1114119 -1 29
Width: 0
VWidth: 0
Flags: M
LayerCount: 2
Fore
SplineSet
154 -12 m 0
 135 -12 118 3 118 25 c 0
 118 42 128 55 143 60 c 0
 162 66 184 71 205 76 c 1
 229 335 380 485 542 511 c 0
 569 515 594 518 621 518 c 0
 790 518 903 417 903 250 c 0
 903 95 803 -14 658 -14 c 0
 623 -14 591 -9 591 25 c 0
 591 46 608 62 628 62 c 0
 638 62 647 60 657 60 c 0
 693 60 732 70 763 94 c 0
 800 123 829 170 829 250 c 0
 829 330 801 378 755 409 c 0
 721 431 675 444 620 444 c 0
 599 444 576 443 553 439 c 0
 431 420 306 309 280 88 c 1
 296 90 312 90 327 90 c 0
 454 90 536 25 536 -103 c 0
 536 -211 483 -314 387 -369 c 0
 382 -372 376 -374 369 -374 c 0
 359 -374 349 -370 342 -363 c 0
 275 -296 202 -173 201 -1 c 1
 189 -4 177 -6 166 -10 c 0
 163 -11 158 -12 154 -12 c 0
462 -102 m 0
 462 -17 418 16 332 16 c 0
 314 16 295 14 275 12 c 0
 275 9 275 7 275 4 c 0
 275 -131 325 -230 374 -289 c 1
 430 -245 462 -175 462 -102 c 0
EndSplineSet
Validated: 1
EndChar

StartChar: mime_zoos
Encoding: 1114120 -1 30
Width: 0
VWidth: 0
Flags: M
LayerCount: 2
Fore
SplineSet
616 521 m 0
 751 521 845 464 845 325 c 0
 845 238 794 155 746 72 c 0
 693 -20 645 -102 645 -186 c 0
 645 -238 656 -290 704 -290 c 0
 718 -290 732 -284 749 -268 c 0
 766 -252 785 -226 802 -194 c 0
 836 -130 865 -42 888 45 c 0
 892 61 907 73 924 73 c 0
 946 73 961 56 961 36 c 0
 961 33 961 29 960 26 c 0
 936 -64 906 -156 867 -229 c 0
 848 -266 826 -298 800 -322 c 0
 774 -346 741 -364 704 -364 c 0
 614 -364 571 -280 571 -188 c 0
 571 -74 629 16 682 109 c 0
 730 193 771 271 771 327 c 0
 771 423 711 447 618 447 c 0
 578 447 535 442 496 438 c 0
 378 426 250 310 224 88 c 1
 240 90 256 90 271 90 c 0
 398 90 481 25 481 -103 c 0
 481 -211 428 -314 332 -369 c 0
 327 -372 320 -374 313 -374 c 0
 303 -374 294 -370 287 -363 c 0
 220 -296 147 -173 146 -1 c 1
 134 -4 121 -6 110 -10 c 0
 107 -11 103 -12 99 -12 c 0
 80 -12 62 3 62 25 c 0
 62 42 73 55 88 60 c 0
 107 66 128 71 149 76 c 1
 173 337 324 496 488 512 c 0
 526 516 570 521 616 521 c 0
407 -102 m 0
 407 -17 363 16 277 16 c 0
 259 16 240 14 220 12 c 0
 220 9 220 7 220 4 c 0
 220 -131 270 -230 319 -289 c 1
 375 -245 407 -175 407 -102 c 0
EndSplineSet
Validated: 1
EndChar

StartChar: nine
Encoding: 57 57 31
Width: 640
Flags: HMWO
LayerCount: 2
Fore
SplineSet
283 348 m 4
 142 348 57 459 57 606 c 4
 57 763 170 874 307 874 c 4
 407 874 468 852 535 797 c 4
 545 789 545 781 548 769 c 5
 548 25 l 6
 548 5 531 -12 511 -12 c 4
 491 -12 475 5 475 25 c 6
 475 451 l 5
 434 391 369 348 283 348 c 4
307 800 m 4
 207 800 131 730 131 606 c 4
 131 542 149 497 175 467 c 4
 201 437 237 422 283 422 c 4
 362 422 403 461 433 527 c 4
 461 588 473 672 474 751 c 5
 423 790 391 800 307 800 c 4
EndSplineSet
EndChar

StartChar: nun
Encoding: 58982 58982 32
Width: 447
Flags: HMW
LayerCount: 2
Fore
SplineSet
20 475 m 0
 20 496 36 512 57 512 c 0
 60 512 63 512 66 511 c 0
 111 500 169 480 223 447 c 1
 277 480 335 500 381 511 c 0
 384 512 387 512 390 512 c 0
 410 512 427 497 427 475 c 0
 427 457 414 443 398 439 c 0
 366 432 326 418 288 399 c 1
 341 350 382 280 382 192 c 0
 382 85 326 -12 224 -12 c 0
 122 -12 65 85 65 192 c 0
 65 280 105 349 158 399 c 1
 120 418 80 431 49 439 c 0
 33 443 20 458 20 475 c 0
223 357 m 1
 174 317 139 266 139 192 c 0
 139 147 151 113 167 92 c 0
 183 71 201 62 224 62 c 0
 247 62 265 71 281 92 c 0
 297 113 308 147 308 192 c 0
 308 266 273 317 223 357 c 1
EndSplineSet
EndChar

StartChar: nun_nun_nun
Encoding: 1114121 -1 33
Width: 0
VWidth: 0
Flags: M
LayerCount: 2
Fore
SplineSet
-173 475 m 0
 -173 497 -156 512 -136 512 c 0
 -133 512 -129 512 -126 511 c 0
 -80 499 -23 476 30 440 c 1
 100 487 184 512 265 512 c 0
 346 512 430 486 499 440 c 1
 568 486 652 512 733 512 c 0
 814 512 899 487 968 440 c 1
 1021 476 1078 499 1124 511 c 0
 1127 512 1131 512 1134 512 c 0
 1154 512 1171 497 1171 475 c 0
 1171 458 1160 443 1144 439 c 0
 1110 430 1068 414 1028 390 c 1
 1081 336 1116 265 1116 182 c 0
 1116 125 1105 78 1079 43 c 0
 1053 8 1012 -12 968 -12 c 0
 924 -12 882 8 856 43 c 0
 830 78 820 125 820 182 c 0
 820 269 858 339 908 390 c 1
 855 420 791 438 733 438 c 0
 675 438 612 421 559 391 c 1
 612 337 648 265 648 182 c 0
 648 125 637 78 611 43 c 0
 585 8 544 -12 500 -12 c 0
 456 -12 414 8 388 43 c 0
 362 78 351 125 351 182 c 0
 351 265 386 337 439 391 c 1
 386 421 323 438 265 438 c 0
 207 438 144 421 91 390 c 1
 141 339 179 269 179 182 c 0
 179 125 168 78 142 43 c 0
 116 8 75 -12 31 -12 c 0
 -13 -12 -55 8 -81 43 c 0
 -107 78 -117 125 -117 182 c 0
 -117 265 -82 336 -29 390 c 1
 -69 414 -111 430 -145 439 c 0
 -161 443 -173 458 -173 475 c 0
499 346 m 1
 453 303 425 248 425 182 c 0
 425 135 435 103 448 86 c 0
 461 69 475 62 500 62 c 0
 525 62 538 69 551 86 c 0
 564 103 574 135 574 182 c 0
 574 248 545 303 499 346 c 1
968 346 m 1
 924 305 894 253 894 182 c 0
 894 135 903 103 916 86 c 0
 929 69 943 62 968 62 c 0
 993 62 1007 69 1020 86 c 0
 1033 103 1042 135 1042 182 c 0
 1042 248 1014 303 968 346 c 1
31 346 m 1
 -15 303 -44 248 -44 182 c 0
 -44 135 -34 103 -21 86 c 0
 -8 69 6 62 31 62 c 0
 56 62 69 69 82 86 c 0
 95 103 105 135 105 182 c 0
 105 253 75 305 31 346 c 1
EndSplineSet
Validated: 1
EndChar

StartChar: oak
Encoding: 59004 59004 34
Width: 584
Flags: HMW
LayerCount: 2
Fore
SplineSet
335 475 m 0
 335 497 352 512 372 512 c 0
 376 512 380 511 384 510 c 0
 480 477 534 371 534 250 c 0
 534 193 520 130 481 78 c 0
 442 26 377 -12 292 -12 c 0
 207 -12 142 26 103 78 c 0
 64 130 50 193 50 250 c 0
 50 371 104 477 200 510 c 0
 204 511 208 512 212 512 c 0
 232 512 249 497 249 475 c 0
 249 459 239 445 225 440 c 0
 160 418 124 336 124 250 c 0
 124 147 179 62 292 62 c 0
 405 62 461 147 461 250 c 0
 461 336 425 418 360 440 c 0
 346 445 335 459 335 475 c 0
EndSplineSet
EndChar

StartChar: oil
Encoding: 59001 59001 35
Width: 525
Flags: HMW
LayerCount: 2
Fore
SplineSet
259 524 m 0
 279 524 295 508 295 488 c 0
 295 472 295 457 294 443 c 1
 314 430 335 414 354 394 c 0
 423 322 475 204 475 25 c 0
 475 5 458 -12 438 -12 c 0
 418 -12 401 5 401 25 c 0
 401 190 355 287 301 343 c 0
 295 350 288 355 281 361 c 1
 276 341 269 324 260 308 c 0
 235 264 189 238 141 238 c 0
 72 238 20 298 20 364 c 0
 20 430 72 491 141 491 c 0
 165 491 192 487 221 478 c 1
 221 481 222 485 222 488 c 0
 222 508 239 524 259 524 c 0
141 417 m 0
 114 417 94 393 94 364 c 0
 94 335 114 312 141 312 c 0
 168 312 181 320 196 345 c 0
 204 358 210 376 215 401 c 1
 187 412 161 417 141 417 c 0
EndSplineSet
EndChar

StartChar: one
Encoding: 49 49 36
Width: 640
Flags: HMW
LayerCount: 2
Fore
SplineSet
170 685 m 0
 150 685 133 701 133 722 c 0
 133 734 139 745 148 752 c 2
 301 867 l 2
 307 871 314 874 323 874 c 0
 343 874 360 857 360 837 c 2
 360 73 l 1
 482 73 l 2
 502 73 519 57 519 37 c 0
 519 17 502 0 482 0 c 0
 376 0 271 0 165 0 c 0
 145 0 128 17 128 37 c 0
 128 57 145 73 165 73 c 2
 286 73 l 1
 286 763 l 1
 192 693 l 2
 186 688 178 685 170 685 c 0
EndSplineSet
EndChar

StartChar: pipe
Encoding: 58960 58960 37
Width: 408
Flags: HMW
LayerCount: 2
Fore
SplineSet
255 796 m 1
 252 797 241 800 230 800 c 0
 211 800 195 793 179 778 c 0
 118 721 94 591 94 475 c 0
 94 455 77 438 57 438 c 0
 37 438 20 455 20 475 c 0
 20 613 53 760 129 832 c 0
 156 857 191 874 230 874 c 0
 250 874 271 872 291 860 c 0
 311 848 328 821 328 793 c 2
 328 25 l 2
 328 5 311 -12 291 -12 c 0
 271 -12 255 5 255 25 c 2
 255 796 l 1
EndSplineSet
EndChar

StartChar: qsbracketleft
Encoding: 58990 58990 38
Width: 479
Flags: HMW
LayerCount: 2
Fore
SplineSet
422 874 m 0
 444 874 459 856 459 837 c 0
 459 833 458 829 457 826 c 2
 107 -300 l 1
 422 -300 l 2
 442 -300 459 -317 459 -337 c 0
 459 -357 442 -374 422 -374 c 2
 57 -374 l 2
 37 -374 20 -357 20 -337 c 0
 20 -333 20 -329 21 -326 c 2
 387 848 l 2
 392 863 405 874 422 874 c 0
EndSplineSet
EndChar

StartChar: question
Encoding: 63 63 39
Width: 417
Flags: HMW
LayerCount: 2
Fore
SplineSet
160 48 m 4
 160 81 187 108 220 108 c 4
 253 108 280 81 280 48 c 4
 280 15 253 -12 220 -12 c 4
 187 -12 160 15 160 48 c 4
98 718 m 0
 76 718 61 735 61 754 c 0
 61 758 63 763 64 767 c 0
 76 801 94 829 121 848 c 0
 148 867 180 874 216 874 c 0
 256 874 296 860 321 827 c 0
 346 794 356 750 356 690 c 0
 356 608 306 543 264 486 c 0
 222 429 187 378 187 337 c 0
 187 309 196 290 217 290 c 0
 225 290 231 291 235 293 c 0
 239 295 244 297 250 312 c 0
 255 326 268 335 284 335 c 0
 306 335 321 318 321 299 c 0
 321 294 321 289 319 285 c 0
 302 242 266 216 217 216 c 0
 154 216 113 271 113 337 c 0
 113 414 163 474 205 530 c 0
 247 586 282 639 282 690 c 0
 282 741 273 770 263 783 c 0
 253 796 242 800 216 800 c 0
 190 800 174 796 163 788 c 0
 152 780 142 767 133 742 c 0
 128 728 114 718 98 718 c 0
EndSplineSet
EndChar

StartChar: roar
Encoding: 58984 58984 40
Width: 391
Flags: HMW
LayerCount: 2
Fore
SplineSet
30 475 m 0
 30 509 62 514 97 514 c 0
 242 514 341 405 341 250 c 0
 341 95 242 -14 97 -14 c 0
 62 -14 30 -9 30 25 c 0
 30 46 47 62 67 62 c 0
 77 62 86 60 96 60 c 0
 132 60 171 70 202 94 c 0
 239 123 268 170 268 250 c 0
 268 330 239 377 202 406 c 0
 171 430 132 440 96 440 c 0
 86 440 77 438 67 438 c 0
 47 438 30 454 30 475 c 0
EndSplineSet
EndChar

StartChar: seven
Encoding: 55 55 41
Width: 640
Flags: HMW
LayerCount: 2
Fore
SplineSet
197.5 -12 m 0
 175.5 -12 160.5 6 160.5 25 c 0
 160.5 30 161.5 35 163.5 40 c 2
 491.5 789 l 1
 73.5 789 l 2
 53.5 789 36.5 806 36.5 826 c 0
 36.5 846 53.5 863 73.5 863 c 2
 548.5 863 l 2
 568.5 863 585.5 846 585.5 826 c 0
 585.5 821 584.5 816 582.5 811 c 2
 231.5 10 l 2
 225.5 -3 212.5 -12 197.5 -12 c 0
EndSplineSet
EndChar

StartChar: shush
Encoding: 58972 58972 42
Width: 416
Flags: HMW
LayerCount: 2
Fore
SplineSet
353 874 m 0
 373 874 390 858 390 837 c 0
 390 826 385 817 378 810 c 0
 172 619 124 413 124 286 c 0
 124 143 166 94 212 72 c 0
 236 60 265 57 291 57 c 0
 317 57 339 62 359 62 c 0
 379 62 396 46 396 25 c 0
 396 6 381 -10 363 -12 c 0
 347 -14 321 -18 290 -18 c 0
 257 -18 218 -13 180 5 c 0
 108 40 50 126 50 286 c 0
 50 432 107 659 328 864 c 0
 335 870 343 874 353 874 c 0
EndSplineSet
EndChar

StartChar: sis
Encoding: 58970 58970 43
Width: 391
Flags: HMW
LayerCount: 2
Fore
SplineSet
351 225 m 0
 351 81 254 -13 108 -13 c 0
 97 -13 85 -13 73 -12 c 0
 54 -10 40 6 40 25 c 0
 40 46 57 62 77 62 c 0
 88 62 98 60 108 60 c 0
 158 60 197 74 225 97 c 0
 257 124 277 164 277 225 c 0
 277 297 231 360 177 427 c 0
 123 494 61 566 61 661 c 0
 61 722 73 781 116 822 c 0
 153 858 209 875 283 875 c 0
 293 875 304 875 315 874 c 0
 334 873 349 857 349 837 c 0
 349 816 333 800 313 800 c 0
 303 800 292 801 283 801 c 0
 221 801 186 788 167 769 c 0
 145 748 135 713 135 661 c 0
 135 599 181 541 235 473 c 0
 289 405 351 328 351 225 c 0
EndSplineSet
EndChar

StartChar: six
Encoding: 54 54 44
Width: 640
Flags: HMW
LayerCount: 2
Fore
SplineSet
580 246 m 0
 580 98 476 -12 324 -12 c 0
 236 -12 168 27 128 89 c 0
 88 151 74 231 74 319 c 0
 74 522 108 726 222 822 c 0
 261 855 311 874 367 874 c 0
 442 874 489 851 520 826 c 0
 528 819 534 809 534 797 c 0
 534 776 517 760 497 760 c 0
 488 760 480 763 474 768 c 0
 450 787 430 800 367 800 c 0
 327 800 297 789 270 766 c 0
 192 701 163 565 152 426 c 1
 198 467 260 492 334 492 c 0
 398 492 460 473 506 431 c 0
 552 389 580 325 580 246 c 0
324 62 m 0
 438 62 506 136 506 246 c 0
 506 308 487 349 457 376 c 0
 427 403 384 418 334 418 c 0
 233 418 174 370 148 291 c 1
 151 224 165 168 190 130 c 0
 218 86 257 62 324 62 c 0
EndSplineSet
EndChar

StartChar: thoth
Encoding: 58966 58966 45
Width: 423
Flags: HMW
LayerCount: 2
Fore
SplineSet
57 760 m 0
 37 760 20 776 20 797 c 0
 20 809 26 820 35 827 c 0
 73 856 124 878 175 878 c 0
 201 878 228 872 253 859 c 0
 337 816 373 704 373 574 c 0
 373 489 357 397 330 311 c 0
 294 199 229 75 108 -6 c 0
 102 -10 95 -12 87 -12 c 0
 67 -12 50 4 50 25 c 0
 50 38 56 49 66 56 c 0
 168 124 227 232 260 334 c 0
 293 438 298 532 298 572 c 0
 298 715 259 773 219 793 c 0
 206 800 192 803 176 803 c 0
 144 803 109 790 79 768 c 0
 73 763 65 760 57 760 c 0
EndSplineSet
EndChar

StartChar: three
Encoding: 51 51 46
Width: 640
Flags: HMW
LayerCount: 2
Fore
SplineSet
112 725 m 0
 91 725 75 742 75 762 c 0
 75 772 79 780 85 787 c 0
 139 846 203 874 297 874 c 0
 356 874 415 859 461 821 c 0
 507 783 538 722 538 644 c 0
 538 575 511 514 459 474 c 0
 449 466 438 459 426 453 c 1
 444 444 461 434 475 422 c 0
 528 378 551 312 551 238 c 0
 551 158 524 93 476 50 c 0
 428 7 364 -12 295 -12 c 0
 172 -12 102 50 76 73 c 0
 69 80 64 89 64 100 c 0
 64 121 81 137 101 137 c 0
 111 137 118 134 125 128 c 0
 151 104 195 62 295 62 c 0
 350 62 396 77 427 105 c 0
 458 133 478 174 478 238 c 0
 478 297 461 337 427 366 c 0
 393 395 335 413 246 414 c 0
 226 414 210 431 210 451 c 0
 210 471 226 488 246 488 c 0
 324 489 380 507 414 533 c 0
 448 559 464 594 464 644 c 0
 464 704 445 740 415 764 c 0
 385 788 342 800 297 800 c 0
 215 800 184 786 139 737 c 0
 132 730 123 725 112 725 c 0
EndSplineSet
EndChar

StartChar: tut
Encoding: 58962 58962 47
Width: 233
Flags: HMW
LayerCount: 2
Fore
SplineSet
117 874 m 0
 137 874 153 857 153 837 c 2
 153 25 l 2
 153 5 137 -12 117 -12 c 0
 97 -12 80 5 80 25 c 2
 80 837 l 2
 80 857 97 874 117 874 c 0
EndSplineSet
EndChar

StartChar: two
Encoding: 50 50 48
Width: 640
Flags: HMW
LayerCount: 2
Fore
SplineSet
96 708 m 0
 75 708 59 725 59 745 c 0
 59 753 62 761 67 767 c 0
 114 830 183 874 303 874 c 0
 370 874 432 855 476 811 c 0
 520 767 543 701 543 618 c 0
 543 503 476 393 391 290 c 0
 327 213 252 139 183 73 c 1
 538 73 l 2
 558 73 575 57 575 37 c 0
 575 17 558 0 538 0 c 2
 92 0 l 2
 72 0 55 17 55 37 c 0
 55 47 59 56 66 63 c 0
 152 146 254 240 334 337 c 0
 414 434 470 533 470 618 c 0
 470 688 451 732 424 759 c 0
 397 786 357 800 303 800 c 0
 199 800 164 774 126 723 c 0
 119 714 108 708 96 708 c 0
EndSplineSet
EndChar

StartChar: valve
Encoding: 58969 58969 49
Width: 465
Flags: HMW
LayerCount: 2
Fore
SplineSet
418 62 m 0
 439 62 455 45 455 25 c 0
 455 24 455 23 455 22 c 0
 447 -85 429 -177 400 -248 c 0
 376 -307 333 -374 258 -374 c 0
 222 -374 191 -353 170 -326 c 0
 149 -299 134 -264 122 -224 c 0
 104 -164 93 -90 89 -11 c 1
 80 -11 71 -12 62 -12 c 0
 42 -12 25 5 25 25 c 0
 25 45 42 62 62 62 c 0
 70 62 79 62 87 62 c 1
 87 64 87 67 87 69 c 0
 87 176 89 279 108 360 c 0
 125 434 164 512 250 512 c 0
 349 512 397 419 397 320 c 0
 397 211 369 126 310 69 c 0
 271 32 221 9 162 -3 c 1
 166 -79 176 -150 192 -203 c 0
 202 -238 216 -265 228 -281 c 0
 240 -297 249 -300 258 -300 c 0
 269 -300 279 -297 292 -284 c 0
 305 -271 319 -249 331 -220 c 0
 355 -161 374 -74 381 28 c 0
 382 47 399 62 418 62 c 0
323 320 m 0
 323 380 305 438 250 438 c 0
 232 438 223 433 211 418 c 0
 199 403 188 378 180 344 c 0
 164 276 160 177 160 72 c 1
 201 82 235 99 259 122 c 0
 300 161 323 223 323 320 c 0
EndSplineSet
EndChar

StartChar: whitewheat
Encoding: 58979 58979 50
Width: 678
Flags: HMW
LayerCount: 2
Fore
SplineSet
621 512 m 0
 643 512 658 495 658 475 c 0
 658 469 656 464 654 459 c 2
 250 -354 l 2
 244 -366 231 -374 217 -374 c 0
 197 -374 180 -357 180 -337 c 0
 180 -325 183 -314 183 -301 c 0
 183 -253 170 -193 148 -141 c 0
 120 -77 77 -24 42 -9 c 0
 29 -3 20 10 20 25 c 0
 20 47 38 62 57 62 c 0
 62 62 66 61 71 59 c 0
 159 21 219 -90 245 -199 c 1
 588 491 l 2
 594 503 607 512 621 512 c 0
EndSplineSet
EndChar

StartChar: winwin
Encoding: 58977 58977 51
Width: 517
Flags: HMW
LayerCount: 2
Fore
SplineSet
460 512 m 0
 482 512 497 495 497 475 c 0
 497 469 496 464 494 459 c 2
 90 -354 l 2
 84 -366 71 -374 57 -374 c 0
 35 -374 20 -356 20 -337 c 0
 20 -331 22 -326 24 -321 c 2
 427 491 l 2
 433 503 446 512 460 512 c 0
EndSplineSet
EndChar

StartChar: wool
Encoding: 59005 59005 52
Width: 568
Flags: HMW
LayerCount: 2
Fore
SplineSet
87 512 m 0
 107 512 124 495 124 475 c 0
 124 347 151 169 218 95 c 0
 238 73 258 62 284 62 c 0
 310 62 330 73 350 95 c 0
 417 169 444 347 444 475 c 0
 444 495 461 512 481 512 c 0
 501 512 518 495 518 475 c 0
 518 326 484 134 404 45 c 0
 374 11 332 -12 284 -12 c 0
 178 -12 124 86 95 170 c 0
 62 266 50 381 50 475 c 0
 50 495 67 512 87 512 c 0
EndSplineSet
EndChar

StartChar: yoyo
Encoding: 58976 58976 53
Width: 411
Flags: HMW
LayerCount: 2
Fore
SplineSet
237 874 m 0
 324 874 391 798 391 705 c 0
 391 655 380 588 330 532 c 0
 294 491 238 460 158 446 c 1
 158 25 l 2
 158 5 141 -12 121 -12 c 0
 101 -12 84 5 84 25 c 2
 84 438 l 1
 76 438 69 438 61 438 c 0
 41 438 24 455 24 475 c 0
 24 495 41 512 61 512 c 0
 69 512 77 512 84 512 c 1
 84 642 l 2
 84 711 96 767 121 808 c 0
 146 849 190 874 237 874 c 0
158 521 m 1
 260 542 317 606 317 705 c 0
 317 767 284 800 237 800 c 0
 212 800 199 793 184 769 c 0
 169 745 158 703 158 642 c 2
 158 521 l 1
EndSplineSet
EndChar

StartChar: yoyo_ooze
Encoding: 1114122 -1 54
Width: 0
VWidth: 0
Flags: M
LayerCount: 2
Fore
SplineSet
508 722 m 0
 508 624 416 506 336 463 c 1
 336 259 l 1
 365 331 401 404 447 454 c 0
 478 487 515 512 560 512 c 0
 642 512 708 447 753 359 c 0
 798 271 824 153 824 25 c 0
 824 5 807 -12 787 -12 c 0
 767 -12 750 5 750 25 c 0
 750 143 725 251 687 326 c 0
 649 401 601 438 560 438 c 0
 543 438 524 428 501 404 c 0
 478 380 455 342 434 299 c 0
 392 212 357 101 334 15 c 0
 330 -1 316 -12 299 -12 c 0
 279 -12 262 5 262 25 c 2
 262 439 l 1
 256 438 248 438 242 438 c 0
 222 438 206 455 206 475 c 0
 206 495 222 512 242 512 c 0
 248 512 256 513 262 514 c 1
 262 660 l 2
 262 728 270 777 290 814 c 0
 310 851 348 874 385 874 c 0
 463 874 508 805 508 722 c 0
385 800 m 0
 372 800 366 799 355 779 c 0
 344 759 336 721 336 660 c 2
 336 553 l 1
 349 564 361 577 373 591 c 0
 411 637 434 697 434 722 c 0
 434 754 426 774 417 785 c 0
 408 796 399 800 385 800 c 0
EndSplineSet
Validated: 1
EndChar

StartChar: zero
Encoding: 48 48 55
Width: 640
Flags: HMW
LayerCount: 2
Fore
SplineSet
320 874 m 0
 404 874 474 823 515 744 c 0
 556 665 576 558 576 431 c 0
 576 304 558 198 517 119 c 0
 476 40 407 -12 320 -12 c 0
 233 -12 163 40 122 119 c 0
 81 198 64 304 64 431 c 0
 64 558 84 665 125 744 c 0
 166 823 236 874 320 874 c 0
320 800 m 0
 264 800 223 772 190 709 c 0
 157 646 138 550 138 431 c 0
 138 312 156 215 188 153 c 0
 220 91 260 62 320 62 c 0
 380 62 420 91 452 153 c 0
 484 215 502 312 502 431 c 0
 502 550 482 646 449 709 c 0
 416 772 376 800 320 800 c 0
EndSplineSet
EndChar

StartChar: zhivago
Encoding: 58973 58973 56
Width: 476
Flags: HMW
LayerCount: 2
Fore
SplineSet
41 469 m 0
 41 509 85 510 128 510 c 0
 167 510 214 504 259 478 c 0
 330 438 387 348 387 188 c 0
 387 147 386 105 383 62 c 1
 390 62 397 62 404 62 c 0
 424 62 441 45 441 25 c 0
 441 5 424 -12 404 -12 c 0
 394 -12 385 -12 376 -12 c 1
 363 -129 336 -241 275 -311 c 0
 242 -349 196 -374 142 -374 c 0
 64 -374 20 -297 20 -218 c 0
 20 -135 50 -60 115 -11 c 0
 163 25 227 48 309 57 c 1
 312 102 313 146 313 188 c 0
 313 331 270 386 223 413 c 0
 192 430 157 435 126 435 c 0
 107 435 92 432 78 432 c 0
 58 432 41 448 41 469 c 0
94 -218 m 0
 94 -256 109 -300 142 -300 c 0
 174 -300 198 -289 220 -263 c 0
 265 -211 289 -112 301 -19 c 1
 175 -37 94 -88 94 -218 c 0
EndSplineSet
EndChar

StartChar: zoos
Encoding: 58971 58971 57
Width: 434
Flags: HMW
LayerCount: 2
Fore
SplineSet
57 434 m 0
 37 434 20 450 20 471 c 0
 20 490 33 505 51 508 c 0
 80 512 108 514 133 514 c 0
 193 514 241 502 278 478 c 0
 331 444 356 387 356 328 c 0
 356 226 287 147 227 67 c 0
 167 -13 113 -93 113 -195 c 0
 113 -262 148 -300 198 -300 c 0
 227 -300 257 -276 285 -218 c 0
 313 -160 333 -73 340 28 c 0
 341 47 358 62 377 62 c 0
 398 62 414 45 414 25 c 0
 414 24 414 23 414 22 c 0
 406 -85 385 -179 351 -250 c 0
 317 -321 266 -374 198 -374 c 0
 106 -374 39 -293 39 -195 c 0
 39 -67 107 29 168 111 c 0
 229 193 282 261 282 328 c 0
 282 410 225 440 132 440 c 0
 111 440 88 438 62 434 c 0
 60 434 59 434 57 434 c 0
EndSplineSet
EndChar

StartChar: numbersign
Encoding: 35 35 70
Width: 640
Flags: MW
LayerCount: 2
Fore
SplineSet
253 874 m 0
 273 874 290 857 290 837 c 0
 290 835 289 834 289 832 c 2
 257 617 l 1
 437 617 l 1
 471 843 l 2
 474 861 490 874 508 874 c 0
 528 874 545 857 545 837 c 0
 545 835 544 834 544 832 c 2
 512 617 l 1
 573 617 l 2
 593 617 610 600 610 580 c 0
 610 560 593 543 573 543 c 2
 501 543 l 1
 467 326 l 1
 467 326 500 326 522 326 c 0
 533 326 540 326 540 326 c 2
 560 326 577 309 577 289 c 0
 577 269 560 252 540 252 c 2
 456 252 l 1
 421 19 l 2
 418 1 402 -12 384 -12 c 0
 364 -12 347 5 347 25 c 0
 347 27 348 29 348 31 c 2
 381 252 l 1
 201 252 l 1
 166 19 l 2
 163 1 147 -12 129 -12 c 0
 109 -12 92 5 92 25 c 0
 92 27 93 29 93 31 c 2
 126 252 l 1
 67 252 l 2
 47 252 30 269 30 289 c 0
 30 309 47 326 67 326 c 2
 137 326 l 1
 171 543 l 1
 171 543 139 543 118 543 c 0
 108 543 100 543 100 543 c 2
 80 543 63 560 63 580 c 0
 63 600 80 617 100 617 c 2
 182 617 l 1
 216 843 l 2
 219 861 235 874 253 874 c 0
245 543 m 1
 212 326 l 1
 393 326 l 1
 426 543 l 1
 245 543 l 1
EndSplineSet
EndChar

StartChar: ampersand
Encoding: 38 38 71
Width: 633
Flags: MW
LayerCount: 2
Fore
SplineSet
100 601 m 0
 100 648 121 759 309 780 c 1
 309 837 l 2
 309 857 326 874 346 874 c 0
 366 874 383 857 383 837 c 2
 383 783 l 1
 439 782 491 771 535 754 c 0
 549 749 559 735 559 719 c 0
 559 699 542 682 522 682 c 0
 507 682 462 708 383 709 c 1
 383 481 l 1
 406 480 430 480 457 480 c 0
 458 480 l 0
 478 480 494 463 494 443 c 0
 494 423 479 407 459 406 c 0
 432 405 407 404 383 402 c 1
 383 147 l 1
 475 148 519 177 536 177 c 0
 557 177 573 160 573 140 c 0
 573 125 563 112 550 106 c 0
 520 93 461 74 383 73 c 1
 383 25 l 2
 383 5 366 -12 346 -12 c 0
 326 -12 309 5 309 25 c 2
 309 75 l 1
 260 79 215 88 176 107 c 0
 119 135 80 194 80 271 c 0
 80 344 110 407 193 442 c 1
 140 468 100 514 100 601 c 0
309 705 m 1
 274 700 244 692 223 680 c 0
 189 661 174 641 174 601 c 0
 174 529 208 500 309 487 c 1
 309 705 l 1
309 395 m 1
 195 379 154 345 154 271 c 0
 154 216 167 163 309 150 c 1
 309 395 l 1
EndSplineSet
EndChar

StartChar: asciicircum
Encoding: 94 94 72
Width: 640
Flags: MW
LayerCount: 2
Fore
SplineSet
91.5 384 m 0
 71.5 384 55.5 401 55.5 421 c 0
 55.5 427 56.5 433 59.5 438 c 2
 287.5 855 l 2
 289.5 858 298.5 874 319.5 874 c 0
 333.5 874 346.5 867 352.5 855 c 2
 579.5 438 l 2
 582.5 433 584.5 427 584.5 421 c 0
 584.5 400 567.5 384 547.5 384 c 0
 533.5 384 520.5 392 514.5 403 c 2
 319.5 760 l 1
 124.5 403 l 0
 118.5 392 105.5 384 91.5 384 c 0
EndSplineSet
EndChar

StartChar: asciitilde
Encoding: 126 126 73
Width: 640
Flags: HMW
LayerCount: 2
Fore
SplineSet
225 508 m 0
 317 508 352 434 416 434 c 0
 483 434 516 466 540 497 c 0
 546 505 556 511 569 511 c 0
 589 511 606 495 606 474 c 0
 606 466 604 458 599 452 c 0
 568 411 509 360 416 360 c 0
 324 360 289 434 225 434 c 0
 107 434 117 357 71 357 c 0
 51 357 34 373 34 394 c 0
 34 402 37 410 41 416 c 0
 75 462 134 508 225 508 c 0
EndSplineSet
EndChar

StartChar: asterisk
Encoding: 42 42 74
Width: 489
Flags: HMW
LayerCount: 2
Fore
SplineSet
80 769 m 0
 80 790 97 806 117 806 c 0
 125 806 131 804 137 800 c 2
 206 755 l 1
 206 837 l 2
 206 857 223 874 243 874 c 0
 263 874 280 857 280 837 c 2
 280 753 l 1
 352 800 l 2
 358 804 364 806 372 806 c 0
 392 806 409 790 409 769 c 0
 409 756 402 745 392 738 c 2
 313 686 l 1
 392 635 l 2
 402 628 409 617 409 604 c 0
 409 583 392 567 372 567 c 0
 365 567 358 569 352 573 c 2
 280 619 l 1
 280 535 l 2
 280 515 263 498 243 498 c 0
 223 498 206 515 206 535 c 2
 206 617 l 1
 137 573 l 2
 131 569 124 567 117 567 c 0
 97 567 80 583 80 604 c 0
 80 617 87 628 97 635 c 2
 176 686 l 1
 97 738 l 2
 87 745 80 756 80 769 c 0
EndSplineSet
EndChar

StartChar: at
Encoding: 64 64 75
Width: 1017
Flags: MW
LayerCount: 2
Fore
SplineSet
749 -120 m 0
 770 -120 786 -137 786 -157 c 0
 786 -173 775 -187 760 -192 c 0
 730 -202 661 -227 497 -227 c 0
 277 -227 50 -62 50 250 c 0
 50 562 283 742 526 742 c 0
 773 742 967 570 967 284 c 0
 967 184 955 114 930 64 c 0
 905 14 858 -12 811 -12 c 0
 723 -12 689 53 670 128 c 1
 625 8 552 -12 479 -12 c 0
 359 -12 273 86 273 243 c 0
 273 380 359 512 502 512 c 0
 540 512 590 503 643 471 c 1
 644 510 674 512 680 512 c 0
 700 512 717 495 717 475 c 0
 717 284 731 105 780 70 c 0
 788 64 796 62 811 62 c 0
 835 62 849 67 865 98 c 0
 881 129 893 190 893 284 c 0
 893 534 728 668 526 668 c 0
 319 668 124 527 124 250 c 0
 124 -27 313 -153 497 -153 c 0
 697 -153 723 -120 749 -120 c 0
347 243 m 0
 347 209 354 62 479 62 c 0
 539 62 618 63 639 383 c 1
 582 431 538 438 502 438 c 0
 380 438 347 307 347 243 c 0
EndSplineSet
EndChar

StartChar: braceleft
Encoding: 123 123 76
Width: 417
Flags: HMW
LayerCount: 2
Fore
SplineSet
144 683 m 0
 144 815 222 874 360 874 c 0
 380 874 397 857 397 837 c 0
 397 817 380 800 360 800 c 0
 261 800 219 776 219 684 c 0
 219 608 242 521 242 442 c 0
 242 417 241 392 235 368 c 0
 224 322 196 279 149 249 c 1
 196 217 223 173 234 126 c 0
 239 102 242 78 242 54 c 0
 242 -25 218 -110 218 -186 c 0
 218 -277 262 -300 360 -300 c 0
 380 -300 397 -317 397 -337 c 0
 397 -357 380 -374 360 -374 c 0
 223 -374 143 -318 143 -186 c 0
 143 -109 167 -19 167 56 c 0
 167 75 166 94 162 110 c 0
 151 159 126 193 47 214 c 0
 31 218 20 233 20 250 c 0
 20 268 33 282 49 286 c 0
 129 305 152 337 163 385 c 0
 167 401 168 420 168 439 c 0
 168 514 144 605 144 683 c 0
EndSplineSet
EndChar

StartChar: bracketleft
Encoding: 91 91 78
Width: 369
Flags: MW
LayerCount: 2
Fore
SplineSet
117 874 m 2
 312 874 l 2
 332 874 349 857 349 837 c 0
 349 817 332 800 312 800 c 2
 154 800 l 1
 154 -300 l 1
 312 -300 l 2
 332 -300 349 -317 349 -337 c 0
 349 -357 332 -374 312 -374 c 2
 117 -374 l 2
 97 -374 80 -357 80 -337 c 2
 80 837 l 2
 80 857 97 874 117 874 c 2
EndSplineSet
EndChar

StartChar: degree
Encoding: 176 176 80
Width: 640
Flags: MW
LayerCount: 2
Fore
SplineSet
320.5 874 m 0
 424.5 874 509.5 789 509.5 685 c 0
 509.5 581 424.5 496 320.5 496 c 0
 216.5 496 130.5 581 130.5 685 c 0
 130.5 789 216.5 874 320.5 874 c 0
320.5 800 m 0
 256.5 800 204.5 749 204.5 685 c 0
 204.5 621 256.5 570 320.5 570 c 0
 384.5 570 435.5 621 435.5 685 c 0
 435.5 749 384.5 800 320.5 800 c 0
EndSplineSet
EndChar

StartChar: dollar
Encoding: 36 36 81
Width: 640
Flags: HMW
LayerCount: 2
Fore
SplineSet
284 424 m 1
 198 470 106 535 106 665 c 0
 106 779 190 858 284 872 c 1
 284 887 l 2
 284 907 301 924 321 924 c 0
 341 924 358 907 358 887 c 2
 358 873 l 1
 422 870 470 858 517 827 c 0
 527 820 534 809 534 796 c 0
 534 775 517 759 497 759 c 0
 489 759 483 761 477 765 c 0
 442 788 411 797 358 799 c 1
 358 469 l 1
 449 421 554 359 554 220 c 0
 554 88 473 9 358 -8 c 1
 358 -25 l 2
 358 -45 341 -62 321 -62 c 0
 301 -62 284 -45 284 -25 c 2
 284 -11 l 1
 174 -5 111 48 86 73 c 0
 79 80 76 89 76 99 c 0
 76 119 93 136 113 136 c 0
 123 136 132 132 139 125 c 0
 158 106 198 68 284 63 c 1
 284 424 l 1
284 797 m 1
 229 785 180 738 180 665 c 0
 180 582 229 543 284 510 c 1
 284 797 l 1
358 384 m 1
 358 67 l 1
 386 73 411 83 430 98 c 0
 460 122 480 158 480 220 c 0
 480 311 420 349 358 384 c 1
EndSplineSet
EndChar

StartChar: Euro
Encoding: 8364 8364 82
Width: 640
Flags: HMW
LayerCount: 2
Fore
SplineSet
139 563 m 1
 160 715 234 874 390 874 c 0
 449 874 481 869 543 844 c 0
 557 839 566 826 566 810 c 0
 566 788 548 773 529 773 c 0
 524 773 520 773 516 775 c 0
 457 798 446 800 390 800 c 0
 330 800 289 767 256 703 c 0
 237 665 222 617 214 563 c 1
 452 563 l 2
 472 563 489 546 489 526 c 0
 489 506 472 489 452 489 c 2
 207 489 l 1
 206 473 205 457 205 441 c 0
 205 430 206 420 206 409 c 1
 411 409 l 2
 431 409 448 392 448 372 c 0
 448 352 431 335 411 335 c 2
 211 335 l 1
 218 271 232 213 253 168 c 0
 286 99 329 62 400 62 c 0
 462 62 481 64 533 89 c 0
 538 91 543 92 549 92 c 0
 568 92 586 77 586 55 c 0
 586 40 577 28 565 22 c 0
 506 -6 465 -12 400 -12 c 0
 300 -12 227 52 187 137 c 0
 160 194 144 263 137 335 c 1
 117 335 l 2
 97 335 80 352 80 372 c 0
 80 392 97 409 117 409 c 2
 132 409 l 1
 132 420 131 430 131 441 c 0
 131 457 132 473 133 489 c 1
 117 489 l 2
 97 489 80 506 80 526 c 0
 80 546 97 563 117 563 c 2
 139 563 l 1
EndSplineSet
EndChar

StartChar: grave
Encoding: 96 96 83
Width: 331
Flags: MW
LayerCount: 2
Fore
SplineSet
80 782 m 0
 80 802 97 819 117 819 c 0
 122 819 137 818 147 803 c 2
 244 660 l 2
 248 654 251 647 251 639 c 0
 251 618 234 602 214 602 c 0
 201 602 190 608 183 618 c 2
 86 762 l 2
 82 768 80 774 80 782 c 0
EndSplineSet
EndChar

StartChar: plus
Encoding: 43 43 84
Width: 640
Flags: HMW
LayerCount: 2
Fore
SplineSet
320 699 m 0
 340 699 357 682 357 662 c 2
 357 469 l 1
 539 469 l 2
 559 469 576 452 576 432 c 0
 576 412 559 395 539 395 c 2
 357 395 l 1
 357 205 l 2
 357 185 340 168 320 168 c 0
 300 168 283 185 283 205 c 2
 283 395 l 1
 101 395 l 2
 81 395 64 412 64 432 c 0
 64 452 81 469 101 469 c 2
 283 469 l 1
 283 662 l 2
 283 682 300 699 320 699 c 0
EndSplineSet
EndChar

StartChar: logicalnot
Encoding: 172 172 85
Width: 640
Flags: MW
LayerCount: 2
Fore
SplineSet
101 469 m 2
 101 469 295 469 425 469 c 0
 562 469 576 469 576 432 c 2
 576 205 l 2
 576 185 559 168 539 168 c 0
 519 168 502 185 502 205 c 2
 502 395 l 1
 101 395 l 2
 81 395 64 412 64 432 c 0
 64 452 81 469 101 469 c 2
EndSplineSet
EndChar

StartChar: minus
Encoding: 8722 8722 86
Width: 640
Flags: MW
LayerCount: 2
Fore
SplineSet
101 469 m 2
 539 469 l 2
 559 469 576 452 576 432 c 0
 576 412 559 395 539 395 c 2
 101 395 l 2
 81 395 64 412 64 432 c 0
 64 452 81 469 101 469 c 2
EndSplineSet
EndChar

StartChar: parenleft
Encoding: 40 40 88
Width: 353
Flags: MW
LayerCount: 2
Fore
SplineSet
323 -337 m 0
 323 -357 307 -374 286 -374 c 0
 275 -374 266 -369 259 -362 c 1
 259 -362 216 -315 177 -217 c 0
 138 -119 100 33 100 250 c 0
 100 467 138 619 177 717 c 0
 216 815 259 862 259 862 c 1
 266 869 275 874 286 874 c 0
 307 874 323 857 323 837 c 0
 323 827 319 819 313 812 c 1
 313 812 282 778 246 689 c 0
 210 600 174 458 174 250 c 0
 174 42 210 -100 246 -189 c 0
 282 -278 313 -312 313 -312 c 1
 319 -319 323 -327 323 -337 c 0
EndSplineSet
EndChar

StartChar: less
Encoding: 60 60 90
Width: 640
Flags: MW
LayerCount: 2
Fore
SplineSet
497 207 m 0
 497 186 480 170 460 170 c 0
 452 170 445 172 439 176 c 2
 119 403 l 2
 110 410 103 421 103 433 c 0
 103 445 110 456 119 463 c 2
 439 690 l 2
 445 694 451 697 460 697 c 0
 481 697 497 681 497 660 c 0
 497 648 490 636 481 629 c 2
 204 433 l 1
 481 237 l 2
 490 230 497 219 497 207 c 0
EndSplineSet
EndChar

StartChar: endash
Encoding: 8211 8211 94
Width: 500
Flags: MW
LayerCount: 2
Fore
SplineSet
57 306 m 2
 443 306 l 2
 463 306 480 289 480 269 c 0
 480 249 463 232 443 232 c 2
 57 232 l 2
 37 232 20 249 20 269 c 0
 20 289 37 306 57 306 c 2
EndSplineSet
EndChar

StartChar: bar
Encoding: 124 124 95
Width: 313
Flags: MW
LayerCount: 2
Fore
SplineSet
157 874 m 0
 177 874 193 857 193 837 c 2
 193 -337 l 2
 193 -357 177 -374 157 -374 c 0
 137 -374 120 -357 120 -337 c 2
 120 837 l 2
 120 857 137 874 157 874 c 0
EndSplineSet
EndChar

StartChar: brokenbar
Encoding: 166 166 96
Width: 313
Flags: HMW
LayerCount: 2
Fore
SplineSet
157 874 m 0
 177 874 193 857 193 837 c 2
 193 380 l 2
 193 360 177 343 157 343 c 0
 137 343 120 360 120 380 c 2
 120 837 l 2
 120 857 137 874 157 874 c 0
157 161 m 0
 177 161 193 144 193 124 c 2
 193 -337 l 2
 193 -357 177 -374 157 -374 c 0
 137 -374 120 -357 120 -337 c 2
 120 124 l 2
 120 144 137 161 157 161 c 0
EndSplineSet
EndChar

StartChar: underscore
Encoding: 95 95 97
Width: 500
Flags: MW
LayerCount: 2
Fore
SplineSet
37 -74 m 2
 463 -74 l 2
 483 -74 500 -91 500 -111 c 0
 500 -131 483 -148 463 -148 c 2
 37 -148 l 2
 17 -148 0 -131 0 -111 c 0
 0 -91 17 -74 37 -74 c 2
EndSplineSet
EndChar

StartChar: dagger
Encoding: 8224 8224 98
Width: 500
Flags: HMW
LayerCount: 2
Fore
SplineSet
250 874 m 0
 270 874 286 857 286 837 c 2
 286 624 l 1
 433 624 l 2
 453 624 470 607 470 587 c 0
 470 567 453 550 433 550 c 2
 286 550 l 1
 286 25 l 2
 286 5 270 -12 250 -12 c 0
 230 -12 213 5 213 25 c 2
 213 550 l 1
 67 550 l 2
 47 550 30 567 30 587 c 0
 30 607 47 624 67 624 c 2
 213 624 l 1
 213 837 l 2
 213 857 230 874 250 874 c 0
EndSplineSet
EndChar

StartChar: daggerdbl
Encoding: 8225 8225 99
Width: 500
Flags: HMW
LayerCount: 2
Fore
SplineSet
250 874 m 0
 270 874 286 857 286 837 c 2
 286 624 l 1
 433 624 l 2
 453 624 470 607 470 587 c 0
 470 567 453 550 433 550 c 2
 286 550 l 1
 286 326 l 1
 433 326 l 2
 453 326 470 309 470 289 c 0
 470 269 453 252 433 252 c 2
 286 252 l 1
 286 25 l 2
 286 5 270 -12 250 -12 c 0
 230 -12 213 5 213 25 c 2
 213 252 l 1
 67 252 l 2
 47 252 30 269 30 289 c 0
 30 309 47 326 67 326 c 2
 213 326 l 1
 213 550 l 1
 67 550 l 2
 47 550 30 567 30 587 c 0
 30 607 47 624 67 624 c 2
 213 624 l 1
 213 837 l 2
 213 857 230 874 250 874 c 0
EndSplineSet
EndChar

StartChar: sterling
Encoding: 163 163 100
Width: 640
Flags: HMW
LayerCount: 2
Fore
SplineSet
220 216 m 1
 209 277 191 354 177 420 c 1
 157 420 l 2
 137 420 120 437 120 457 c 0
 120 477 137 494 157 494 c 2
 163 494 l 1
 154 548 147 601 147 651 c 0
 147 729 168 788 210 826 c 0
 250 862 304 874 361 874 c 0
 433 874 494 864 554 803 c 0
 561 796 564 787 564 777 c 0
 564 757 547 740 527 740 c 0
 517 740 508 744 501 751 c 0
 453 800 429 800 361 800 c 0
 314 800 281 790 259 771 c 0
 236 751 221 714 221 651 c 0
 221 604 228 550 238 494 c 1
 375 494 l 2
 395 494 412 477 412 457 c 0
 412 437 395 420 375 420 c 2
 253 420 l 1
 271 332 297 229 304 154 c 1
 312 145 319 136 326 128 c 0
 359 89 384 62 426 62 c 0
 479 62 521 91 535 143 c 0
 539 159 554 170 571 170 c 0
 593 170 608 153 608 133 c 0
 608 130 607 126 606 123 c 0
 584 40 509 -12 426 -12 c 0
 367 -12 325 20 293 54 c 1
 274 16 235 -12 180 -12 c 0
 116 -12 72 43 72 107 c 0
 72 168 121 222 185 222 c 0
 197 222 209 219 220 216 c 1
180 62 m 0
 215 62 233 83 233 111 c 0
 233 115 232 119 232 123 c 0
 219 136 202 148 185 148 c 0
 164 148 146 127 146 107 c 0
 146 82 158 62 180 62 c 0
EndSplineSet
EndChar

StartChar: multiply
Encoding: 215 215 101
Width: 640
Flags: HMW
LayerCount: 2
Fore
SplineSet
90 628 m 0
 90 648 106 664 126 664 c 0
 136 664 145 661 152 654 c 2
 322 484 l 1
 492 654 l 2
 499 661 508 664 518 664 c 0
 538 664 554 648 554 628 c 0
 554 618 551 609 544 602 c 2
 374 432 l 1
 544 262 l 2
 551 255 554 246 554 236 c 0
 554 216 538 200 518 200 c 0
 508 200 499 203 492 210 c 2
 322 380 l 1
 152 210 l 2
 145 203 136 200 126 200 c 0
 106 200 90 216 90 236 c 0
 90 246 93 255 100 262 c 2
 270 432 l 1
 100 602 l 2
 93 609 90 618 90 628 c 0
EndSplineSet
EndChar

StartChar: minute
Encoding: 8242 8242 102
Width: 640
Flags: MW
LayerCount: 2
Fore
SplineSet
335 874 m 4
 357 874 372 856 372 837 c 4
 372 832 371 827 369 823 c 6
 259 563 l 6
 253 550 240 540 225 540 c 4
 203 540 188 558 188 577 c 4
 188 582 189 588 191 592 c 6
 301 852 l 6
 307 865 320 874 335 874 c 4
EndSplineSet
EndChar

StartChar: section
Encoding: 167 167 104
Width: 631
Flags: HMW
LayerCount: 2
Fore
SplineSet
70 -277 m 0
 70 -257 87 -240 107 -240 c 0
 117 -240 126 -245 133 -252 c 0
 170 -290 226 -300 291 -300 c 0
 362 -300 431 -254 431 -157 c 0
 431 -31 307 80 202 195 c 0
 149 252 101 311 84 380 c 0
 80 394 79 409 79 424 c 0
 79 475 99 528 144 579 c 1
 132 610 125 644 125 679 c 0
 125 738 138 788 170 823 c 0
 202 858 250 874 303 874 c 0
 369 874 409 865 462 821 c 0
 470 814 476 804 476 792 c 0
 476 771 459 756 439 756 c 0
 430 756 421 759 415 764 c 0
 373 799 367 800 319 800 c 0
 314 800 309 800 303 800 c 0
 264 800 241 790 225 773 c 0
 209 756 199 727 199 679 c 0
 199 621 227 565 272 508 c 0
 317 451 376 394 429 336 c 0
 482 278 530 220 546 150 c 0
 549 136 551 122 551 107 c 0
 551 56 530 3 485 -48 c 1
 498 -82 505 -118 505 -157 c 0
 505 -291 398 -374 291 -374 c 0
 218 -374 138 -362 80 -303 c 0
 73 -296 70 -287 70 -277 c 0
181 508 m 1
 160 479 152 454 152 429 c 0
 152 418 153 409 156 398 c 0
 167 353 206 301 256 246 c 0
 317 179 396 108 448 24 c 1
 469 52 478 76 478 101 c 0
 478 111 476 122 474 133 c 0
 463 179 424 231 374 286 c 0
 312 354 234 425 181 508 c 1
EndSplineSet
EndChar

StartChar: slash
Encoding: 47 47 106
Width: 381
Flags: HMW
LayerCount: 2
Fore
SplineSet
37 -52 m 0
 15 -52 0 -34 0 -15 c 0
 0 -11 1 -7 2 -3 c 2
 309 878 l 2
 314 892 327 903 344 903 c 0
 366 903 381 885 381 866 c 0
 381 862 380 858 379 854 c 2
 72 -27 l 2
 67 -41 53 -52 37 -52 c 0
EndSplineSet
EndChar

StartChar: percent
Encoding: 37 37 108
Width: 997
Flags: HMW
LayerCount: 2
Fore
SplineSet
651 903 m 0
 673 903 688 886 688 866 c 0
 688 862 687 858 686 854 c 2
 379 -27 l 2
 374 -41 360 -52 344 -52 c 0
 322 -52 307 -34 307 -15 c 0
 307 -11 308 -7 309 -3 c 2
 573 754 l 1
 546 743 514 739 477 739 c 0
 455 739 437 742 419 748 c 1
 424 723 427 694 427 660 c 0
 427 526 339 446 249 446 c 0
 138 446 70 538 70 660 c 0
 70 730 89 780 116 813 c 0
 143 846 175 862 192 870 c 0
 197 872 203 874 209 874 c 0
 228 874 246 859 246 837 c 0
 246 822 237 810 225 804 c 0
 175 779 144 749 144 660 c 0
 144 604 159 569 178 549 c 0
 197 529 223 520 249 520 c 0
 299 520 353 555 353 660 c 0
 353 744 335 777 305 814 c 0
 300 820 297 828 297 837 c 0
 297 857 314 874 334 874 c 0
 342 874 349 872 355 868 c 0
 407 833 433 813 477 813 c 0
 517 813 541 818 560 829 c 0
 579 840 597 858 622 889 c 0
 629 897 639 903 651 903 c 0
749 -12 m 0
 637 -12 570 82 570 202 c 0
 570 336 658 416 749 416 c 0
 841 416 927 335 927 202 c 0
 927 82 861 -12 749 -12 c 0
749 342 m 0
 698 342 644 307 644 202 c 0
 644 149 658 114 677 93 c 0
 696 72 720 62 749 62 c 0
 778 62 801 73 820 94 c 0
 839 115 853 150 853 202 c 0
 853 305 800 342 749 342 c 0
EndSplineSet
EndChar

StartChar: hyphen
Encoding: 45 45 109
Width: 410
Flags: HMW
LayerCount: 2
Fore
SplineSet
67 306 m 2
 343 306 l 2
 363 306 380 289 380 269 c 0
 380 249 363 232 343 232 c 2
 67 232 l 2
 47 232 30 249 30 269 c 0
 30 289 47 306 67 306 c 2
EndSplineSet
EndChar

StartChar: period
Encoding: 46 46 113
Width: 240
Flags: HMW
LayerCount: 2
Fore
SplineSet
60 48 m 0
 60 81 87 108 120 108 c 0
 153 108 180 81 180 48 c 0
 180 15 153 -12 120 -12 c 0
 87 -12 60 15 60 48 c 0
EndSplineSet
EndChar

StartChar: exclam
Encoding: 33 33 114
Width: 240
Flags: HMW
LayerCount: 2
Fore
SplineSet
60 48 m 0
 60 81 87 108 120 108 c 0
 153 108 180 81 180 48 c 0
 180 15 153 -12 120 -12 c 0
 87 -12 60 15 60 48 c 0
120 874 m 0
 140 874 156 857 156 837 c 2
 156 263 l 6
 156 243 140 226 120 226 c 4
 100 226 83 243 83 263 c 6
 83 837 l 2
 83 857 100 874 120 874 c 0
EndSplineSet
EndChar

StartChar: bullet
Encoding: 8226 8226 117
Width: 416
Flags: MW
LayerCount: 2
Fore
SplineSet
80 384 m 0
 80 455 137 512 208 512 c 0
 279 512 336 455 336 384 c 0
 336 313 279 256 208 256 c 0
 137 256 80 313 80 384 c 0
  Spiro
    80 384 o
    97.3742 448.684 o
    143.316 494.626 o
    208 512 o
    272.684 494.626 o
    318.626 448.684 o
    336 384 o
    318.626 319.316 o
    272.684 273.374 o
    208 256 o
    143.316 273.374 o
    97.3742 319.316 o
    0 0 z
  EndSpiro
EndSplineSet
EndChar

StartChar: quotesingle
Encoding: 39 39 120
Width: 240
Flags: HMW
LayerCount: 2
Fore
SplineSet
120 874 m 0
 140 874 156 857 156 837 c 2
 156 627 l 6
 156 607 140 590 120 590 c 4
 100 590 84 607 84 627 c 6
 84 837 l 2
 84 857 100 874 120 874 c 0
EndSplineSet
EndChar

StartChar: comma
Encoding: 44 44 122
Width: 240
Flags: HMW
LayerCount: 2
Fore
SplineSet
61 48 m 0
 61 81 88 108 121 108 c 0
 142 108 165 90 173 72 c 0
 181 54 183 35 183 10 c 0
 183 -27 176 -89 122 -144 c 0
 115 -151 106 -155 96 -155 c 0
 76 -155 59 -138 59 -118 c 0
 59 -108 62 -99 69 -92 c 0
 99 -61 106 -35 108 -10 c 1
 81 -4 61 22 61 48 c 0
EndSplineSet
EndChar

